<svg width="119" height="118" viewBox="0 0 119 118" fill="none" xmlns="http://www.w3.org/2000/svg">
<path d="M113 59C113 69.6802 109.833 80.1205 103.899 89.0008C97.9658 97.881 89.5321 104.802 79.6649 108.889C69.7977 112.977 58.9402 114.046 48.4652 111.962C37.9902 109.879 28.3683 104.736 20.8163 97.1838C13.2643 89.6318 8.12125 80.0099 6.03763 69.535C3.95401 59.06 5.02337 48.2024 9.11048 38.3352C13.1976 28.468 20.1189 20.0343 28.9991 14.1007C37.8793 8.1671 48.3197 5.00003 58.9999 5" stroke="#7294FE" stroke-opacity="0.3" stroke-width="10"/>
<path d="M60 5C70.6802 5 81.1205 8.16704 90.0008 14.1006C98.8811 20.0342 105.802 28.4679 109.89 38.3351C113.977 48.2023 115.046 59.0599 112.962 69.5348C110.879 80.0098 105.736 89.6317 98.1838 97.1837C90.6318 104.736 81.01 109.879 70.535 111.962C60.06 114.046 49.2024 112.977 39.3352 108.89C29.468 104.802 21.0344 97.8811 15.1007 89.0009C9.16712 80.1207 6.00005 69.6803 6.00002 59.0002" stroke="#7294FE" stroke-width="10" stroke-linecap="round"/>
<path d="M33.1051 52L40.3409 37.6818V37.5625H31.9119V34.5455H44.1591V37.6051L36.9148 52H33.1051ZM53.157 52.3835C51.6911 52.3778 50.4297 52.017 49.3729 51.3011C48.3217 50.5852 47.5121 49.5483 46.9439 48.1903C46.3814 46.8324 46.103 45.1989 46.1087 43.2898C46.1087 41.3864 46.3899 39.7642 46.9524 38.4233C47.5206 37.0824 48.3303 36.0625 49.3814 35.3636C50.4382 34.6591 51.6967 34.3068 53.157 34.3068C54.6172 34.3068 55.8729 34.6591 56.924 35.3636C57.9808 36.0682 58.7933 37.0909 59.3615 38.4318C59.9297 39.767 60.2109 41.3864 60.2053 43.2898C60.2053 45.2045 59.9212 46.8409 59.353 48.1989C58.7905 49.5568 57.9837 50.5937 56.9325 51.3097C55.8814 52.0256 54.6229 52.3835 53.157 52.3835ZM53.157 49.3239C54.157 49.3239 54.9553 48.821 55.5518 47.8153C56.1484 46.8097 56.4439 45.3011 56.4382 43.2898C56.4382 41.9659 56.3018 40.8636 56.0291 39.983C55.7621 39.1023 55.3814 38.4403 54.8871 37.9972C54.3984 37.554 53.8217 37.3324 53.157 37.3324C52.1626 37.3324 51.3672 37.8295 50.7706 38.8239C50.174 39.8182 49.8729 41.3068 49.8672 43.2898C49.8672 44.6307 50.0007 45.75 50.2678 46.6477C50.5405 47.5398 50.924 48.2102 51.4183 48.6591C51.9126 49.1023 52.4922 49.3239 53.157 49.3239ZM72.3906 48.7273V47.8068C72.3906 47.108 72.5384 46.4659 72.8338 45.8807C73.1349 45.2898 73.5696 44.8182 74.1378 44.4659C74.7116 44.108 75.4105 43.929 76.2344 43.929C77.0696 43.929 77.7713 44.1051 78.3395 44.4574C78.9134 44.8097 79.3452 45.2812 79.6349 45.8722C79.9304 46.4574 80.0781 47.1023 80.0781 47.8068V48.7273C80.0781 49.4261 79.9304 50.071 79.6349 50.6619C79.3395 51.2472 78.9048 51.7159 78.331 52.0682C77.7571 52.4261 77.0582 52.6051 76.2344 52.6051C75.3991 52.6051 74.6974 52.4261 74.1293 52.0682C73.5611 51.7159 73.1293 51.2472 72.8338 50.6619C72.5384 50.071 72.3906 49.4261 72.3906 48.7273ZM74.8707 47.8068V48.7273C74.8707 49.1307 74.9673 49.5114 75.1605 49.8693C75.3594 50.2273 75.7173 50.4062 76.2344 50.4062C76.7514 50.4062 77.1037 50.2301 77.2912 49.8778C77.4844 49.5256 77.581 49.142 77.581 48.7273V47.8068C77.581 47.392 77.4901 47.0057 77.3082 46.6477C77.1264 46.2898 76.7685 46.1108 76.2344 46.1108C75.723 46.1108 75.3679 46.2898 75.169 46.6477C74.9702 47.0057 74.8707 47.392 74.8707 47.8068ZM63.4332 38.7386V37.8182C63.4332 37.1136 63.5838 36.4687 63.8849 35.8835C64.1861 35.2926 64.6207 34.821 65.1889 34.4688C65.7628 34.1165 66.456 33.9403 67.2685 33.9403C68.1094 33.9403 68.8139 34.1165 69.3821 34.4688C69.9503 34.821 70.3821 35.2926 70.6776 35.8835C70.973 36.4687 71.1207 37.1136 71.1207 37.8182V38.7386C71.1207 39.4432 70.9702 40.0881 70.669 40.6733C70.3736 41.2585 69.9389 41.7273 69.3651 42.0795C68.7969 42.4261 68.098 42.5994 67.2685 42.5994C66.4389 42.5994 65.7372 42.4233 65.1634 42.071C64.5952 41.7131 64.1634 41.2443 63.8679 40.6648C63.5781 40.0795 63.4332 39.4375 63.4332 38.7386ZM65.9304 37.8182V38.7386C65.9304 39.1534 66.027 39.5369 66.2202 39.8892C66.419 40.2415 66.7685 40.4176 67.2685 40.4176C67.7912 40.4176 68.1463 40.2415 68.3338 39.8892C68.527 39.5369 68.6236 39.1534 68.6236 38.7386V37.8182C68.6236 37.4034 68.5327 37.017 68.3509 36.6591C68.169 36.3011 67.8082 36.1222 67.2685 36.1222C66.7628 36.1222 66.4134 36.304 66.2202 36.6676C66.027 37.0312 65.9304 37.4148 65.9304 37.8182ZM64.5582 52L76.5582 34.5455H78.7912L66.7912 52H64.5582Z" fill="white"/>
<path d="M53.9826 68C53.903 67.7102 53.7866 67.4389 53.6332 67.1861C53.4798 66.9304 53.2894 66.7074 53.0621 66.517C52.8377 66.3239 52.5778 66.1733 52.2823 66.0653C51.9897 65.9574 51.663 65.9034 51.3022 65.9034C50.734 65.9034 50.2255 66.0511 49.7766 66.3466C49.3278 66.642 48.9726 67.0682 48.7113 67.625C48.4528 68.1818 48.3235 68.8523 48.3235 69.6364C48.3235 70.4176 48.4542 71.0866 48.7155 71.6435C48.9769 72.2003 49.3349 72.6278 49.7894 72.9261C50.2468 73.2216 50.7695 73.3693 51.3576 73.3693C51.8945 73.3693 52.369 73.25 52.7809 73.0114C53.1928 72.7727 53.5138 72.4318 53.744 71.9886C53.9769 71.5455 54.0905 71.0185 54.0849 70.4077L54.3405 70.4886H51.5451V69.7727H54.8604V70.4886C54.8604 71.233 54.7099 71.8764 54.4087 72.419C54.1076 72.9616 53.6942 73.3807 53.1687 73.6761C52.6431 73.9716 52.0394 74.1193 51.3576 74.1193C50.5962 74.1193 49.93 73.9361 49.359 73.5696C48.788 73.2003 48.3434 72.6804 48.0252 72.0099C47.7099 71.3366 47.5522 70.5455 47.5522 69.6364C47.5522 68.9517 47.6431 68.3338 47.8249 67.7827C48.0067 67.2315 48.2638 66.7599 48.5962 66.3679C48.9315 65.9759 49.3278 65.6761 49.7851 65.4688C50.2425 65.2585 50.7482 65.1534 51.3022 65.1534C51.7795 65.1534 52.2155 65.2287 52.6104 65.3793C53.0082 65.5298 53.3576 65.7372 53.6587 66.0014C53.9627 66.2628 54.2113 66.5653 54.4045 66.9091C54.6005 67.25 54.7326 67.6136 54.8008 68H53.9826ZM59.2251 74.1364C58.6598 74.1364 58.1598 73.9929 57.7251 73.706C57.2933 73.419 56.9552 73.0227 56.7109 72.517C56.4666 72.0085 56.3445 71.4219 56.3445 70.7571C56.3445 70.0866 56.4666 69.4972 56.7109 68.9886C56.9552 68.4773 57.2933 68.0795 57.7251 67.7955C58.1598 67.5085 58.6598 67.3651 59.2251 67.3651C59.7905 67.3651 60.2891 67.5085 60.7209 67.7955C61.1527 68.0824 61.4908 68.4801 61.7351 68.9886C61.9822 69.4972 62.1058 70.0866 62.1058 70.7571C62.1058 71.4219 61.9837 72.0085 61.7393 72.517C61.495 73.0227 61.1555 73.419 60.7209 73.706C60.2891 73.9929 59.7905 74.1364 59.2251 74.1364ZM59.2251 73.4418C59.6797 73.4418 60.0646 73.3196 60.38 73.0753C60.6953 72.831 60.9339 72.5057 61.0959 72.0994C61.2606 71.6932 61.343 71.2457 61.343 70.7571C61.343 70.2685 61.2606 69.8196 61.0959 69.4105C60.9339 69.0014 60.6953 68.6733 60.38 68.4261C60.0646 68.179 59.6797 68.0554 59.2251 68.0554C58.7734 68.0554 58.3885 68.179 58.0703 68.4261C57.755 68.6733 57.5149 69.0014 57.3501 69.4105C57.1882 69.8196 57.1072 70.2685 57.1072 70.7571C57.1072 71.2457 57.1882 71.6932 57.3501 72.0994C57.5149 72.5057 57.755 72.831 58.0703 73.0753C58.3856 73.3196 58.7706 73.4418 59.2251 73.4418ZM65.5991 74.1491C65.2042 74.1491 64.8434 74.0724 64.5167 73.919C64.19 73.7628 63.93 73.5384 63.7369 73.2457C63.5437 72.9503 63.4471 72.5923 63.4471 72.1719C63.4471 71.848 63.5082 71.5753 63.6303 71.3537C63.7525 71.1321 63.9258 70.9503 64.1502 70.8082C64.3746 70.6662 64.6403 70.554 64.9471 70.4716C65.2539 70.3892 65.592 70.3253 65.9613 70.2798C66.3278 70.2344 66.6374 70.1946 66.8903 70.1605C67.1459 70.1264 67.3405 70.0724 67.4741 69.9986C67.6076 69.9247 67.6744 69.8054 67.6744 69.6406V69.4872C67.6744 69.0412 67.5408 68.6903 67.2738 68.4347C67.0096 68.1761 66.6289 68.0469 66.1317 68.0469C65.6601 68.0469 65.2752 68.1506 64.9769 68.358C64.6815 68.5653 64.4741 68.8097 64.3548 69.0909L63.6346 68.831C63.7823 68.473 63.9869 68.1875 64.2482 67.9744C64.5096 67.7585 64.8022 67.6037 65.1261 67.5099C65.4499 67.4134 65.778 67.3651 66.1104 67.3651C66.3604 67.3651 66.6204 67.3977 66.8903 67.4631C67.163 67.5284 67.4158 67.642 67.6488 67.804C67.8817 67.9631 68.0707 68.1861 68.2155 68.473C68.3604 68.7571 68.4329 69.1179 68.4329 69.5554V74H67.6744V72.9645H67.6275C67.5366 73.1577 67.4016 73.3452 67.2226 73.527C67.0437 73.7088 66.8192 73.858 66.5494 73.9744C66.2795 74.0909 65.9627 74.1491 65.5991 74.1491ZM65.7013 73.4545C66.1048 73.4545 66.4542 73.3651 66.7496 73.1861C67.0451 73.0071 67.2724 72.7699 67.4315 72.4744C67.5934 72.1761 67.6744 71.848 67.6744 71.4901V70.544C67.6175 70.598 67.5224 70.6463 67.3888 70.6889C67.2582 70.7315 67.1062 70.7699 66.9329 70.804C66.7624 70.8352 66.592 70.8622 66.4215 70.8849C66.2511 70.9077 66.0976 70.9276 65.9613 70.9446C65.592 70.9901 65.2766 71.0611 65.0153 71.1577C64.7539 71.2543 64.5536 71.3878 64.4144 71.5582C64.2752 71.7259 64.2056 71.9418 64.2056 72.206C64.2056 72.6037 64.3476 72.9119 64.6317 73.1307C64.9158 73.3466 65.2724 73.4545 65.7013 73.4545ZM71.2092 65.2727V74H70.4506V65.2727H71.2092ZM36.6974 83H35.8963C35.8366 82.7017 35.7287 82.4261 35.5724 82.1733C35.419 81.9176 35.2258 81.6946 34.9929 81.5043C34.7599 81.3139 34.4957 81.1662 34.2003 81.0611C33.9048 80.956 33.5852 80.9034 33.2415 80.9034C32.6903 80.9034 32.1875 81.0469 31.7329 81.3338C31.2812 81.6207 30.919 82.0426 30.6463 82.5994C30.3764 83.1534 30.2415 83.8324 30.2415 84.6364C30.2415 85.446 30.3764 86.1278 30.6463 86.6818C30.919 87.2358 31.2812 87.6562 31.7329 87.9432C32.1875 88.2273 32.6903 88.3693 33.2415 88.3693C33.5852 88.3693 33.9048 88.3168 34.2003 88.2116C34.4957 88.1065 34.7599 87.9602 34.9929 87.7727C35.2258 87.5824 35.419 87.3594 35.5724 87.1037C35.7287 86.848 35.8366 86.571 35.8963 86.2727H36.6974C36.6264 86.6733 36.4929 87.0469 36.2969 87.3935C36.1037 87.7372 35.8565 88.0384 35.5554 88.2969C35.2571 88.5554 34.9133 88.7571 34.5241 88.902C34.1349 89.0469 33.7074 89.1193 33.2415 89.1193C32.5085 89.1193 31.8579 88.9361 31.2898 88.5696C30.7216 88.2003 30.2756 87.6804 29.9517 87.0099C29.6307 86.3395 29.4702 85.5483 29.4702 84.6364C29.4702 83.7244 29.6307 82.9332 29.9517 82.2628C30.2756 81.5923 30.7216 81.0739 31.2898 80.7074C31.8579 80.3381 32.5085 80.1534 33.2415 80.1534C33.7074 80.1534 34.1349 80.2259 34.5241 80.3707C34.9133 80.5128 35.2571 80.7145 35.5554 80.9759C35.8565 81.2344 36.1037 81.5355 36.2969 81.8793C36.4929 82.223 36.6264 82.5966 36.6974 83ZM40.9556 89.1364C40.3903 89.1364 39.8903 88.9929 39.4556 88.706C39.0238 88.419 38.6857 88.0227 38.4414 87.517C38.1971 87.0085 38.0749 86.4219 38.0749 85.7571C38.0749 85.0866 38.1971 84.4972 38.4414 83.9886C38.6857 83.4773 39.0238 83.0795 39.4556 82.7955C39.8903 82.5085 40.3903 82.3651 40.9556 82.3651C41.5209 82.3651 42.0195 82.5085 42.4513 82.7955C42.8832 83.0824 43.2212 83.4801 43.4655 83.9886C43.7127 84.4972 43.8363 85.0866 43.8363 85.7571C43.8363 86.4219 43.7141 87.0085 43.4698 87.517C43.2255 88.0227 42.886 88.419 42.4513 88.706C42.0195 88.9929 41.5209 89.1364 40.9556 89.1364ZM40.9556 88.4418C41.4101 88.4418 41.7951 88.3196 42.1104 88.0753C42.4258 87.831 42.6644 87.5057 42.8263 87.0994C42.9911 86.6932 43.0735 86.2457 43.0735 85.7571C43.0735 85.2685 42.9911 84.8196 42.8263 84.4105C42.6644 84.0014 42.4258 83.6733 42.1104 83.4261C41.7951 83.179 41.4101 83.0554 40.9556 83.0554C40.5039 83.0554 40.119 83.179 39.8008 83.4261C39.4854 83.6733 39.2454 84.0014 39.0806 84.4105C38.9187 84.8196 38.8377 85.2685 38.8377 85.7571C38.8377 86.2457 38.9187 86.6932 39.0806 87.0994C39.2454 87.5057 39.4854 87.831 39.8008 88.0753C40.1161 88.3196 40.5011 88.4418 40.9556 88.4418ZM45.5014 89V82.4545H46.2386V83.4602H46.3068C46.4375 83.1222 46.6548 82.8565 46.9588 82.6634C47.2656 82.4673 47.6335 82.3693 48.0625 82.3693C48.5142 82.3693 48.8849 82.4759 49.1747 82.6889C49.4673 82.8991 49.6861 83.1889 49.831 83.5582H49.8864C50.0341 83.1946 50.2741 82.9062 50.6065 82.6932C50.9418 82.4773 51.348 82.3693 51.8253 82.3693C52.4332 82.3693 52.9133 82.5611 53.2656 82.9446C53.6179 83.3253 53.794 83.8821 53.794 84.6151V89H53.0355V84.6151C53.0355 84.098 52.9034 83.7102 52.6392 83.4517C52.375 83.1932 52.027 83.0639 51.5952 83.0639C51.0952 83.0639 50.7102 83.2173 50.4403 83.5241C50.1704 83.831 50.0355 84.2202 50.0355 84.6918V89H49.2599V84.5469C49.2599 84.1037 49.1364 83.7457 48.8892 83.473C48.642 83.2003 48.294 83.0639 47.8452 83.0639C47.544 83.0639 47.2727 83.1378 47.0312 83.2855C46.7926 83.4332 46.6037 83.6392 46.4645 83.9034C46.3281 84.1648 46.2599 84.4659 46.2599 84.8068V89H45.5014ZM55.8022 91.4545V82.4545H56.5394V83.7031H56.6289C56.7198 83.5071 56.8448 83.3068 57.0039 83.1023C57.163 82.8949 57.3732 82.7202 57.6346 82.5781C57.8988 82.4361 58.2312 82.3651 58.6317 82.3651C59.1715 82.3651 59.6431 82.5071 60.0465 82.7912C60.4528 83.0724 60.7681 83.4673 60.9925 83.9759C61.2198 84.4815 61.3334 85.071 61.3334 85.7443C61.3334 86.4205 61.2198 87.0128 60.9925 87.5213C60.7681 88.0298 60.4528 88.4261 60.0465 88.7102C59.6431 88.9943 59.1744 89.1364 58.6403 89.1364C58.2454 89.1364 57.9144 89.0653 57.6474 88.9233C57.3832 88.7812 57.1687 88.6065 57.0039 88.3991C56.842 88.1889 56.717 87.9844 56.6289 87.7855H56.5607V91.4545H55.8022ZM56.5522 85.7315C56.5522 86.2599 56.6303 86.7287 56.7866 87.1378C56.9457 87.544 57.1729 87.8636 57.4684 88.0966C57.7667 88.3267 58.1275 88.4418 58.5508 88.4418C58.9854 88.4418 59.3519 88.3224 59.6502 88.0838C59.9513 87.8423 60.18 87.517 60.3363 87.108C60.4954 86.6989 60.5749 86.2401 60.5749 85.7315C60.5749 85.2287 60.4968 84.7756 60.3405 84.3722C60.1871 83.9687 59.9599 83.6491 59.6587 83.4134C59.3576 83.1747 58.9883 83.0554 58.5508 83.0554C58.1246 83.0554 57.7624 83.1705 57.4641 83.4006C57.1658 83.6278 56.9386 83.9432 56.7823 84.3466C56.6289 84.7472 56.5522 85.2088 56.5522 85.7315ZM63.756 80.2727V89H62.9975V80.2727H63.756ZM68.4094 89.1364C67.7986 89.1364 67.2702 88.9943 66.8242 88.7102C66.3782 88.4233 66.033 88.027 65.7887 87.5213C65.5472 87.0128 65.4265 86.4276 65.4265 85.7656C65.4265 85.1065 65.5472 84.5213 65.7887 84.0099C66.033 83.4957 66.3697 83.0937 66.7986 82.804C67.2305 82.5114 67.729 82.3651 68.2944 82.3651C68.6495 82.3651 68.9918 82.4304 69.3214 82.5611C69.6509 82.6889 69.9464 82.8864 70.2077 83.1534C70.4719 83.4176 70.6807 83.7514 70.8342 84.1548C70.9876 84.5554 71.0643 85.0298 71.0643 85.5781V85.9531H65.9506V85.2841H70.2887C70.2887 84.8636 70.2035 84.4858 70.033 84.1506C69.8654 83.8125 69.631 83.5455 69.3299 83.3494C69.0316 83.1534 68.6864 83.0554 68.2944 83.0554C67.8796 83.0554 67.5146 83.1662 67.1992 83.3878C66.8839 83.6094 66.6367 83.902 66.4577 84.2656C66.2816 84.6293 66.1921 85.027 66.1893 85.4588V85.8594C66.1893 86.3793 66.2788 86.8338 66.4577 87.223C66.6396 87.6094 66.8967 87.9091 67.229 88.1222C67.5614 88.3352 67.9549 88.4418 68.4094 88.4418C68.7191 88.4418 68.9904 88.3935 69.2234 88.2969C69.4592 88.2003 69.6566 88.071 69.8157 87.9091C69.9776 87.7443 70.0998 87.5639 70.1822 87.3679L70.9023 87.6023C70.8029 87.8778 70.6396 88.1321 70.4123 88.3651C70.1878 88.598 69.9066 88.7855 69.5685 88.9276C69.2333 89.0668 68.8469 89.1364 68.4094 89.1364ZM75.3139 82.4545V83.1151H72.1903V82.4545H75.3139ZM73.1662 80.8864H73.929V87.2912C73.929 87.5639 73.9758 87.7784 74.0696 87.9347C74.1633 88.0881 74.2855 88.1974 74.4361 88.2628C74.5866 88.3253 74.7472 88.3565 74.9176 88.3565C75.017 88.3565 75.1023 88.3509 75.1733 88.3395C75.2443 88.3253 75.3068 88.3111 75.3608 88.2969L75.5227 88.983C75.4489 89.0114 75.3579 89.0369 75.25 89.0597C75.142 89.0852 75.0085 89.098 74.8494 89.098C74.571 89.098 74.3025 89.0369 74.044 88.9148C73.7883 88.7926 73.5781 88.6108 73.4133 88.3693C73.2486 88.1278 73.1662 87.8281 73.1662 87.4702V80.8864ZM79.6126 89.1364C79.0018 89.1364 78.4734 88.9943 78.0273 88.7102C77.5813 88.4233 77.2361 88.027 76.9918 87.5213C76.7503 87.0128 76.6296 86.4276 76.6296 85.7656C76.6296 85.1065 76.7503 84.5213 76.9918 84.0099C77.2361 83.4957 77.5728 83.0937 78.0018 82.804C78.4336 82.5114 78.9322 82.3651 79.4975 82.3651C79.8526 82.3651 80.1949 82.4304 80.5245 82.5611C80.854 82.6889 81.1495 82.8864 81.4109 83.1534C81.6751 83.4176 81.8839 83.7514 82.0373 84.1548C82.1907 84.5554 82.2674 85.0298 82.2674 85.5781V85.9531H77.1538V85.2841H81.4918C81.4918 84.8636 81.4066 84.4858 81.2361 84.1506C81.0685 83.8125 80.8342 83.5455 80.533 83.3494C80.2347 83.1534 79.8896 83.0554 79.4975 83.0554C79.0827 83.0554 78.7177 83.1662 78.4023 83.3878C78.087 83.6094 77.8398 83.902 77.6609 84.2656C77.4847 84.6293 77.3952 85.027 77.3924 85.4588V85.8594C77.3924 86.3793 77.4819 86.8338 77.6609 87.223C77.8427 87.6094 78.0998 87.9091 78.4322 88.1222C78.7646 88.3352 79.158 88.4418 79.6126 88.4418C79.9222 88.4418 80.1935 88.3935 80.4265 88.2969C80.6623 88.2003 80.8597 88.071 81.0188 87.9091C81.1807 87.7443 81.3029 87.5639 81.3853 87.3679L82.1055 87.6023C82.006 87.8778 81.8427 88.1321 81.6154 88.3651C81.391 88.598 81.1097 88.7855 80.7717 88.9276C80.4364 89.0668 80.0501 89.1364 79.6126 89.1364ZM86.2954 89.1364C85.7585 89.1364 85.2883 88.9943 84.8849 88.7102C84.4815 88.4261 84.1662 88.0298 83.9389 87.5213C83.7145 87.0128 83.6023 86.4205 83.6023 85.7443C83.6023 85.071 83.7145 84.4815 83.9389 83.9759C84.1662 83.4673 84.4829 83.0724 84.8892 82.7912C85.2954 82.5071 85.7685 82.3651 86.3082 82.3651C86.706 82.3651 87.0369 82.4361 87.3011 82.5781C87.5653 82.7173 87.777 82.8906 87.9361 83.098C88.0952 83.3054 88.2187 83.5071 88.3068 83.7031H88.375V80.2727H89.1378V89H88.3963V87.7855H88.3068C88.2187 87.9844 88.0937 88.1889 87.9318 88.3991C87.7699 88.6065 87.5554 88.7812 87.2883 88.9233C87.0241 89.0653 86.6932 89.1364 86.2954 89.1364ZM86.3849 88.4418C86.8082 88.4418 87.169 88.3267 87.4673 88.0966C87.7656 87.8636 87.9929 87.544 88.1491 87.1378C88.3082 86.7287 88.3878 86.2599 88.3878 85.7315C88.3878 85.2088 88.3097 84.7472 88.1534 84.3466C87.9972 83.9432 87.7699 83.6278 87.4716 83.4006C87.1733 83.1705 86.8111 83.0554 86.3849 83.0554C85.9474 83.0554 85.5781 83.1747 85.277 83.4134C84.9787 83.6491 84.7514 83.9687 84.5952 84.3722C84.4418 84.7756 84.365 85.2287 84.365 85.7315C84.365 86.2401 84.4432 86.6989 84.5994 87.108C84.7557 87.517 84.9829 87.8423 85.2812 88.0838C85.5824 88.3224 85.9503 88.4418 86.3849 88.4418Z" fill="white"/>
</svg>
